<svg width="16" height="16" viewBox="0 0 16 16" fill="none" xmlns="http://www.w3.org/2000/svg">
<g clip-path="url(#clip0_4710_2631)">
<path d="M15.2572 6.41624C15.2323 6.33928 15.1863 6.27085 15.1244 6.21871C15.0625 6.16657 14.9873 6.13281 14.9072 6.12124L10.3262 5.45524L8.27723 1.30524C8.24141 1.23294 8.18611 1.17209 8.11755 1.12954C8.049 1.087 7.96992 1.06445 7.88923 1.06445C7.80855 1.06445 7.72947 1.087 7.66091 1.12954C7.59235 1.17209 7.53705 1.23294 7.50123 1.30524L5.45123 5.45524L0.871231 6.12124C0.791389 6.13294 0.716403 6.16671 0.654732 6.21875C0.593061 6.27079 0.547159 6.33902 0.522203 6.41576C0.497248 6.4925 0.494233 6.57468 0.513497 6.65304C0.532761 6.7314 0.573539 6.80282 0.631231 6.85924L3.94623 10.0912L3.16323 14.6542C3.14971 14.7338 3.15869 14.8156 3.18917 14.8903C3.21964 14.965 3.27039 15.0297 3.3357 15.0772C3.401 15.1246 3.47826 15.1528 3.55875 15.1586C3.63924 15.1645 3.71976 15.1477 3.79123 15.1102L7.88923 12.9562L11.9862 15.1102C12.0578 15.1478 12.1384 15.1646 12.219 15.1587C12.2996 15.1529 12.377 15.1245 12.4423 15.077C12.5077 15.0294 12.5584 14.9646 12.5888 14.8897C12.6192 14.8148 12.628 14.7329 12.6142 14.6532L11.8322 10.0912L15.1472 6.85924C15.205 6.80297 15.2459 6.73168 15.2653 6.65341C15.2848 6.57514 15.282 6.493 15.2572 6.41624Z" fill="#F0C015"/>
</g>
<defs>
<clipPath id="clip0_4710_2631">
<rect width="15" height="15" fill="white" transform="translate(0.5 0.5)"/>
</clipPath>
</defs>
</svg>
